HIERARCHY
ROOT Hips
{
	OFFSET 0.000000 0.000000 0.000000
	CHANNELS 6 Xposition Yposition Zposition Xrotation Yrotation Zrotation
	JOINT LeftUpLeg_virtual
	{
		OFFSET 0.000000 0.000000 0.000000
		CHANNELS 3 Xrotation Yrotation Zrotation
		JOINT LeftUpLeg
		{
			OFFSET 11.394100 -6.187798 -0.413800
			CHANNELS 3 Xrotation Yrotation Zrotation
			JOINT LeftLeg
			{
				OFFSET 0.430247 -32.302673 3.732800
				CHANNELS 3 Xrotation Yrotation Zrotation
				JOINT LeftFoot
				{
					OFFSET -0.430247 -48.264931 -6.423300
					CHANNELS 3 Xrotation Yrotation Zrotation
					JOINT LeftToeBase
					{
						OFFSET 4.230900 -16.068199 23.438400
						CHANNELS 3 Xrotation Yrotation Zrotation
						JOINT LeftToe_End
						{
							OFFSET 4.510700 0.695400 19.974600
							CHANNELS 3 Xrotation Yrotation Zrotation
							End Site
							{
								OFFSET 0 0 0
							}
						}
					}
				}
			}
		}
	}
	JOINT RightUpLeg_virtual
	{
		OFFSET 0.000000 0.000000 0.000000
		CHANNELS 3 Xrotation Yrotation Zrotation
		JOINT RightUpLeg
		{
			OFFSET -11.333700 -6.187798 -0.413800
			CHANNELS 3 Xrotation Yrotation Zrotation
			JOINT RightLeg
			{
				OFFSET -0.430392 -32.302628 3.733000
				CHANNELS 3 Xrotation Yrotation Zrotation
				JOINT RightFoot
				{
					OFFSET 0.430392 -48.264973 -6.423500
					CHANNELS 3 Xrotation Yrotation Zrotation
					JOINT RightToeBase
					{
						OFFSET -4.230900 -16.068199 23.438400
						CHANNELS 3 Xrotation Yrotation Zrotation
						JOINT RightToe_End
						{
							OFFSET -4.510700 0.695400 19.974600
							CHANNELS 3 Xrotation Yrotation Zrotation
							End Site
							{
								OFFSET 0 0 0
							}
						}
					}
				}
			}
		}
	}
	JOINT Spine_virtual
	{
		OFFSET 0.000000 0.000000 0.000000
		CHANNELS 3 Xrotation Yrotation Zrotation
		JOINT Spine
		{
			OFFSET -0.002400 12.777504 0.315300
			CHANNELS 3 Xrotation Yrotation Zrotation
			JOINT Spine1
			{
				OFFSET -0.002067 5.816869 0.032633
				CHANNELS 3 Xrotation Yrotation Zrotation
				JOINT Spine1_split
				{
					OFFSET -0.002067 5.816869 0.032633
					CHANNELS 3 Xrotation Yrotation Zrotation
					JOINT Spine2
					{
						OFFSET -0.002067 5.816869 0.032633
						CHANNELS 3 Xrotation Yrotation Zrotation
						JOINT Neck_virtual
						{
							OFFSET 0.000000 0.000000 0.000000
							CHANNELS 3 Xrotation Yrotation Zrotation
							JOINT Neck
							{
								OFFSET -0.003700 21.199493 -0.826900
								CHANNELS 3 Xrotation Yrotation Zrotation
								JOINT Head
								{
									OFFSET 0.000000 20.442200 4.834800
									CHANNELS 3 Xrotation Yrotation Zrotation
									JOINT HeadTop_End
									{
										OFFSET 0.000000 34.668396 4.968400
										CHANNELS 3 Xrotation Yrotation Zrotation
										End Site
										{
											OFFSET 0 0 0
										}
									}
								}
							}
						}
						JOINT LeftShoulder_virtual
						{
							OFFSET 0.000000 0.000000 0.000000
							CHANNELS 3 Xrotation Yrotation Zrotation
							JOINT LeftShoulder
							{
								OFFSET 3.288150 8.794197 -1.372250
								CHANNELS 3 Xrotation Yrotation Zrotation
								JOINT LeftShoulder_split
								{
									OFFSET 3.288150 8.794197 -1.372250
									CHANNELS 3 Xrotation Yrotation Zrotation
									JOINT LeftArm
									{
										OFFSET 11.953299 -2.279007 -0.146200
										CHANNELS 3 Xrotation Yrotation Zrotation
										JOINT LeftForeArm
										{
											OFFSET 18.448900 0.000000 0.000000
											CHANNELS 3 Xrotation Yrotation Zrotation
											JOINT LeftHand
											{
												OFFSET 29.527798 0.000000 0.000000
												CHANNELS 3 Xrotation Yrotation Zrotation
												End Site
												{
													OFFSET 0 0 0
												}
											}
										}
									}
								}
							}
						}
						JOINT RightShoulder_virtual
						{
							OFFSET 0.000000 0.000000 0.000000
							CHANNELS 3 Xrotation Yrotation Zrotation
							JOINT RightShoulder
							{
								OFFSET -3.249400 8.794197 -1.372250
								CHANNELS 3 Xrotation Yrotation Zrotation
								JOINT RightShoulder_split
								{
									OFFSET -3.249400 8.794197 -1.372250
									CHANNELS 3 Xrotation Yrotation Zrotation
									JOINT RightArm
									{
										OFFSET -11.953299 -2.279007 -0.146200
										CHANNELS 3 Xrotation Yrotation Zrotation
										JOINT RightForeArm
										{
											OFFSET -18.448900 0.000000 0.000000
											CHANNELS 3 Xrotation Yrotation Zrotation
											JOINT RightHand
											{
												OFFSET -29.527802 0.000000 0.000000
												CHANNELS 3 Xrotation Yrotation Zrotation
												End Site
												{
													OFFSET 0 0 0
												}
											}
										}
									}
								}
							}
						}
					}
				}
			}
		}
	}
}
MOTION
Frames: 10
Frame Time: 0.03333333
0.682742 78.448257 2.503700 0.000000 0.000000 0.000000 -10.898122 -76.073923 -8.428903 -49.779126 15.872559 51.205798 38.939387 1.337386 -3.005651 13.563239 -5.042260 -25.642518 -3.714326 0.178944 0.448287 0.000000 0.000000 0.000000 -13.115169 -74.163253 -9.554138 -38.903453 -1.059468 -20.391255 57.180196 8.459333 -9.639710 -15.084548 -2.929955 21.206243 2.946683 0.417554 -0.974868 0.000000 0.000000 0.000000 -12.691816 -75.868416 -9.565490 4.413866 -2.049525 -2.784082 4.034637 -0.139742 -3.378320 0.586178 0.567069 0.273095 0.000000 0.000000 0.000000 5.801931 0.182214 -3.059356 -6.031357 21.382329 5.890490 1.696328 19.431448 -8.710223 0.000000 0.000000 0.000000 6.110401 -0.063657 -3.407755 0.022008 -5.298979 -18.148815 -1.892334 -1.925041 -1.228348 -44.841524 -23.016781 -5.695561 -6.501219 -32.835609 -4.371322 0.000000 0.000000 0.000000 5.139177 -0.007984 -2.983995 1.944818 16.528878 5.907750 8.219398 4.032174 2.355200 19.507720 74.788017 -8.031359 77.694542 86.702353 -88.682602 0.000000 0.000000 0.000000 
0.571520 78.762871 2.135086 0.000000 0.000000 0.000000 -11.663269 -76.029021 -9.482259 -48.767964 15.425873 51.156515 38.932461 1.332628 -2.949553 13.459717 -4.467943 -24.932497 -3.139940 0.144982 0.416559 0.000000 0.000000 0.000000 -14.189595 -74.372980 -10.682284 -38.971649 -0.942928 -20.200276 55.983369 8.474555 -9.319871 -14.742361 -2.979393 21.337277 3.159186 0.588339 -1.175784 0.000000 0.000000 0.000000 -13.214297 -76.304264 -10.369335 3.907281 -1.969108 -2.609266 3.811483 -0.139991 -3.335379 -0.014071 0.549638 0.294637 0.000000 0.000000 0.000000 5.645121 0.044552 -2.991054 -5.689683 21.540091 5.910875 2.217206 19.952388 -9.145643 0.000000 0.000000 0.000000 5.824186 -0.088825 -3.295919 -0.059533 -5.264816 -18.347213 -1.915726 -0.752826 -1.906157 -44.865501 -23.082493 -6.274971 -6.209660 -34.445426 -4.097356 0.000000 0.000000 0.000000 4.996352 -0.046741 -2.991834 1.925629 16.538886 5.722747 8.759051 2.043695 2.177432 18.175733 74.415157 -5.963812 64.550212 86.869119 -75.477306 0.000000 0.000000 0.000000 
0.594754 79.607292 1.686890 0.000000 0.000000 0.000000 -14.416207 -76.672207 -12.543677 -46.689425 14.830409 50.819575 38.043693 1.543849 -2.838588 13.913986 -3.749255 -23.978398 -2.739567 0.052026 0.147054 0.000000 0.000000 0.000000 -16.228277 -75.187993 -12.980781 -39.384821 -1.076578 -20.203370 54.110278 8.746676 -8.887281 -12.894175 -2.284625 21.694446 3.495816 0.721755 -1.196049 0.000000 0.000000 0.000000 -15.795202 -77.051760 -13.319597 3.403773 -1.636103 -2.142313 3.902896 -0.173928 -3.140091 -0.162208 -0.017803 0.082604 0.000000 0.000000 0.000000 5.790947 -0.100827 -2.809942 -5.827678 21.827736 6.138549 2.888289 21.447187 -9.681158 0.000000 0.000000 0.000000 5.754150 -0.167628 -3.036179 -0.337459 -5.507300 -18.754837 -2.642230 0.068445 -2.129984 -42.676972 -21.833753 -7.636154 -6.175162 -36.182517 -4.355290 0.000000 0.000000 0.000000 5.042537 -0.076907 -2.822649 1.914172 15.902115 5.835440 7.930527 1.225634 2.181470 15.701300 71.893478 -1.469610 39.888708 86.089036 -50.413329 0.000000 0.000000 0.000000 
0.677002 80.890129 1.276825 0.000000 0.000000 0.000000 -18.968059 -77.801496 -17.398169 -43.753533 14.282207 50.236004 36.326754 1.898293 -2.744522 15.100249 -3.280885 -23.031017 -3.717962 -0.164105 0.263398 0.000000 0.000000 0.000000 -18.823050 -76.058610 -16.015824 -39.605337 -1.356221 -20.207407 51.978125 8.930194 -8.366560 -10.339250 -1.240947 21.923225 3.880566 0.796944 -0.835561 0.000000 0.000000 0.000000 -19.389669 -77.513358 -17.321438 3.078436 -1.132421 -1.476739 4.258972 -0.240840 -2.808042 0.350211 -0.802406 0.332793 0.000000 0.000000 0.000000 6.023245 -0.232278 -2.568197 -6.299742 22.014171 6.532975 3.709181 23.645845 -10.264228 0.000000 0.000000 0.000000 5.930053 -0.287797 -2.713812 -0.739221 -6.260121 -19.467333 -3.360055 0.373951 -2.092020 -38.034025 -20.002001 -9.783101 -6.273745 -38.853022 -4.989031 0.000000 0.000000 0.000000 5.290341 -0.065154 -2.528680 1.918505 14.931716 6.335280 6.196205 1.722324 2.126760 13.324821 67.530319 4.248362 22.586628 84.169377 -32.346202 0.000000 0.000000 0.000000 
0.753284 82.432159 1.092579 0.000000 0.000000 0.000000 -23.999348 -78.820424 -22.662624 -40.113653 13.995260 49.434761 34.033907 2.400517 -2.709754 16.502420 -3.064158 -22.091362 -5.939906 -0.519091 0.968840 0.000000 0.000000 0.000000 -20.318143 -76.256501 -18.025501 -39.104397 -1.676164 -20.084607 49.768177 8.626711 -7.800312 -7.909095 -0.534707 21.649548 4.080896 0.799295 -0.074510 0.000000 0.000000 0.000000 -23.146579 -77.503188 -21.371440 3.068582 -0.624831 -0.760365 4.722115 -0.351870 -2.371034 0.736561 -1.313004 0.908785 0.000000 0.000000 0.000000 6.143657 -0.369798 -2.292853 -6.815221 22.157554 7.029918 4.676496 25.916164 -10.755662 0.000000 0.000000 0.000000 6.273418 -0.471516 -2.395887 -1.206489 -7.583036 -20.440801 -3.044667 0.232933 -1.944089 -30.727518 -18.462778 -12.213416 -6.255899 -43.213183 -5.647218 0.000000 0.000000 0.000000 5.642491 -0.032188 -2.151758 1.864343 13.704127 7.352220 4.079202 3.019792 1.968960 11.829091 62.085170 9.866703 12.698085 81.020373 -21.352911 0.000000 0.000000 0.000000 
0.852835 83.892220 0.964287 0.000000 0.000000 0.000000 -26.929056 -79.210933 -25.740300 -36.177261 13.939690 48.376772 31.302648 3.285914 -2.804635 17.365525 -2.906498 -21.155705 -7.494866 -0.909523 1.711480 0.000000 0.000000 0.000000 -19.393706 -75.533177 -17.591149 -37.793742 -1.763961 -19.838356 47.661497 7.825587 -7.317019 -6.100605 -0.534054 21.077045 4.014498 0.704122 0.913362 0.000000 0.000000 0.000000 -25.649073 -77.024952 -23.905510 3.384491 -0.246305 -0.156673 5.143816 -0.537446 -1.853185 0.666103 -1.426409 1.179078 0.000000 0.000000 0.000000 6.025493 -0.539443 -1.972913 -6.969928 22.280598 7.524813 5.613120 27.909340 -11.071053 0.000000 0.000000 0.000000 6.686479 -0.727675 -2.095445 -1.628475 -9.319547 -21.358572 -2.707960 -0.216510 -1.855174 -21.767961 -18.880562 -14.111258 -5.904909 -49.629271 -5.975534 0.000000 0.000000 0.000000 5.995774 -0.013809 -1.697390 1.712541 12.405262 9.001890 1.958444 3.853092 1.562027 11.279871 56.619816 14.579141 7.222912 76.280297 -14.473316 0.000000 0.000000 0.000000 
0.977964 85.114548 0.783497 0.000000 0.000000 0.000000 -26.022205 -78.901737 -24.893120 -32.415764 13.930496 47.099656 28.091004 4.306250 -2.953163 17.378464 -2.933121 -20.774739 -7.588776 -1.223730 2.356513 0.000000 0.000000 0.000000 -16.354570 -74.038076 -14.860828 -36.006247 -1.500560 -19.679122 45.578812 6.926300 -7.008688 -4.847779 -1.136711 20.857420 3.862743 0.545431 1.797820 0.000000 0.000000 0.000000 -26.312892 -76.255435 -24.348182 4.011322 -0.130548 0.207362 5.388568 -0.888206 -1.287405 0.533984 -1.384201 1.602918 0.000000 0.000000 0.000000 5.695948 -0.837663 -1.604131 -6.547439 22.624085 7.885832 6.321361 29.717344 -11.237603 0.000000 0.000000 0.000000 7.027700 -1.111157 -1.772842 -1.951519 -11.298517 -21.753302 -2.661257 -0.502165 -2.628339 -12.736621 -22.330842 -14.310894 -5.181115 -57.960043 -5.621339 0.000000 0.000000 0.000000 6.216360 -0.171766 -1.130617 1.421601 11.203906 11.257618 -0.165825 3.664859 1.010911 11.045484 52.062523 18.431250 4.826225 70.225758 -10.330727 0.000000 0.000000 0.000000 
1.166826 86.023643 0.711147 0.000000 0.000000 0.000000 -21.272482 -78.022842 -20.180356 -29.268327 13.646120 45.657813 24.552698 5.113260 -3.066075 16.933091 -3.315454 -21.424123 -6.522979 -1.423348 2.994936 0.000000 0.000000 0.000000 -12.492163 -72.237153 -11.073971 -34.259228 -1.085895 -19.846320 43.496055 6.147270 -6.835503 -3.650299 -2.176964 21.473503 3.754856 0.373578 2.193312 0.000000 0.000000 0.000000 -25.052939 -75.458181 -22.685488 4.721925 -0.386563 0.278484 5.438205 -1.519202 -0.704529 0.374177 -1.586809 1.819033 0.000000 0.000000 0.000000 5.286331 -1.344109 -1.139070 -5.632030 23.470012 7.978887 6.730235 31.451976 -11.375338 0.000000 0.000000 0.000000 7.139915 -1.697094 -1.349566 -2.034267 -13.166990 -21.053874 -2.441365 -0.565069 -3.499802 -5.692507 -29.302604 -11.918031 -3.604023 -67.031941 -3.960616 0.000000 0.000000 0.000000 6.276006 -0.659276 -0.459247 1.046443 10.173877 13.959615 -2.067428 2.693321 0.373838 10.510171 48.801500 21.570979 4.546653 64.001181 -7.960448 0.000000 0.000000 0.000000 
1.330075 86.744987 0.887829 0.000000 0.000000 0.000000 -14.348096 -76.764523 -13.289811 -27.131106 13.307107 44.350112 20.996867 5.961755 -3.130391 16.379762 -4.109991 -22.825461 -5.116060 -1.496621 3.448231 0.000000 0.000000 0.000000 -8.845401 -70.608843 -7.232803 -32.766357 -0.849146 -20.305338 41.374824 5.458479 -6.671206 -2.199089 -3.465917 22.832423 3.693263 0.225051 2.065940 0.000000 0.000000 0.000000 -22.113301 -74.692183 -19.276662 5.307747 -1.018819 0.156205 5.341830 -2.444171 -0.111001 0.480132 -1.696935 1.727487 0.000000 0.000000 0.000000 4.885468 -2.096413 -0.580032 -4.581154 24.697949 7.817735 6.959317 33.429613 -11.815789 0.000000 0.000000 0.000000 7.053158 -2.536269 -0.791083 -1.668889 -14.661728 -18.698891 -1.758765 -0.217009 -3.443641 -2.196273 -39.873599 -7.195734 -0.271704 -74.669110 -0.098176 0.000000 0.000000 0.000000 6.238719 -1.513911 0.291539 0.678455 9.547442 16.790622 -3.050523 1.549621 -0.510336 9.478627 46.401423 24.195325 5.464975 58.531477 -6.571696 0.000000 0.000000 0.000000 
1.490921 87.421928 1.307964 0.000000 0.000000 0.000000 -7.352508 -75.398390 -6.227017 -26.078192 13.073914 43.391382 18.197480 7.172478 -3.074679 16.026540 -5.185035 -24.328333 -4.159748 -1.478997 3.478779 0.000000 0.000000 0.000000 -5.701524 -69.335614 -3.643899 -31.307528 -1.017300 -20.917021 38.913637 4.799034 -6.385937 -0.656965 -4.742130 24.497180 3.449912 0.131369 1.617698 0.000000 0.000000 0.000000 -17.718704 -74.016014 -14.560170 5.597775 -1.940225 -0.012640 5.179938 -3.614752 0.456267 0.888808 -1.562430 1.312072 0.000000 0.000000 0.000000 4.523079 -3.119707 0.025706 -3.883203 26.086512 7.602967 7.437717 35.761477 -12.954583 0.000000 0.000000 0.000000 6.830753 -3.614003 -0.122763 -0.784860 -15.428941 -14.463569 -0.649694 0.558811 -2.103481 -3.256497 -53.607498 -2.270445 4.535135 -79.530047 5.755598 0.000000 0.000000 0.000000 6.217386 -2.700594 1.025645 0.413344 9.324935 19.481301 -3.664195 0.929696 -1.353261 8.116475 44.094772 26.457962 7.216173 54.657527 -5.945096 0.000000 0.000000 0.000000 
